<svg viewBox="0 0 24 24" fill="none" xmlns="http://www.w3.org/2000/svg" id="Database--Streamline-Solar" height="24" width="24">
  <desc>
    Database Streamline Icon: https://streamlinehq.com
  </desc>
  <path d="M20 18c0 2.2091 -3.5817 4 -8 4 -4.41828 0 -8 -1.7909 -8 -4v-4.026c0.50221 0.6166 1.21495 1.1289 2.00774 1.5252C7.58004 16.2854 9.69967 16.75 12 16.75c2.3003 0 4.42 -0.4646 5.9923 -1.2508 0.7928 -0.3963 1.5055 -0.9086 2.0077 -1.5252V18Z" fill="#000000" stroke-width="1"></path>
  <path d="M12 10.75c2.3003 0 4.42 -0.4646 5.9923 -1.25075 0.7928 -0.3964 1.5055 -0.90866 2.0077 -1.52528V12c0 0.5 -1.7857 1.5911 -2.6786 2.1576C15.9983 14.8192 14.118 15.25 12 15.25c-2.11795 0 -3.99832 -0.4308 -5.32144 -1.0924C5.5 13.5683 4 12.5 4 12V7.97397c0.50221 0.61662 1.21495 1.12888 2.00774 1.52528C7.58004 10.2854 9.69967 10.75 12 10.75Z" fill="#000000" stroke-width="1"></path>
  <path d="M17.3214 8.15761C15.9983 8.81917 14.118 9.25 12 9.25c-2.11795 0 -3.99832 -0.43083 -5.32144 -1.09239 -0.51472 -0.20165 -1.67219 -0.84269 -2.47706 -1.87826 -0.13696 -0.17622 -0.19574 -0.40082 -0.16162 -0.62137 0.02295 -0.14829 0.05492 -0.30103 0.0959 -0.39572C4.82815 3.40554 8.0858 2 12 2c3.9142 0 7.1718 1.40554 7.8642 3.26226 0.041 0.09469 0.073 0.24743 0.0959 0.39572 0.0341 0.22055 -0.0246 0.44515 -0.1616 0.62137 -0.8049 1.03557 -1.9623 1.67661 -2.4771 1.87826Z" fill="#000000" stroke-width="1"></path>
</svg>